<?xml version="1.0" encoding="UTF-8"?>
<svg xmlns="http://www.w3.org/2000/svg" version="1.1" viewBox="0 0 1080 1080">
  <!-- Generator: Adobe Illustrator 29.1.0, SVG Export Plug-In . SVG Version: 2.1.0 Build 142)  -->
  <defs>
    <style>
      .st0 {
        fill: none;
      }

      .st0, .st1 {
        stroke: #000;
        stroke-miterlimit: 10;
        stroke-width: 12px;
      }

      .st2 {
        fill: #666;
      }

      .st3, .st1 {
        fill: #333;
      }

      .st4 {
        fill: #1a1a1a;
      }

      .st5 {
        display: none;
      }
    </style>
  </defs>
  <g id="Läufer" class="st5">
    <g id="Ebene_3">
      <path d="M862.81,883.29c39.45,0,71.54,32.09,71.54,71.54v13.2c0,6.56-5.33,11.89-11.89,11.89H157.54c-6.56,0-11.89-5.33-11.89-11.89v-13.2c0-39.45,32.09-71.54,71.54-71.54h645.61M862.81,871.29H217.19c-46.14,0-83.54,37.4-83.54,83.54v13.2c0,13.19,10.7,23.89,23.89,23.89h764.92c13.19,0,23.89-10.7,23.89-23.89v-13.2c0-46.14-37.4-83.54-83.54-83.54h0Z"/>
      <path class="st0" d="M766.13,468.15c-28.93-71.31-59.88-142.18-90.53-202.56l-82.13,183.52-53.13-23.78,100.25-224.02c-37.23-62.92-72.66-103.89-101.95-103.89-55.15,0-157.79,176.17-227.49,370.72-69.06,192.75,30.1,363.57,227.49,370.72,218.13,7.9,304.47-181,227.49-370.72Z"/>
    </g>
    <g id="Ebene_4">
      <path class="st2" d="M877.9,872.67c22.76,14.92,37.81,40.65,37.81,69.9v13.2c0,13.19-10.7,23.89-23.89,23.89H136.68c4.09,7.31,11.9,12.26,20.86,12.26h764.92c13.19,0,23.89-10.7,23.89-23.89v-13.2c0-40.98-29.52-75.05-68.45-82.16Z"/>
      <g>
        <path class="st2" d="M609.95,189.06l-100.25,224.02,53.13,23.78.54-1.21-23.04-10.31,100.25-224.02c-37.23-62.92-72.66-103.89-101.95-103.89-.12,0-.25,0-.38,0,22.18,16.6,46.52,49.09,71.69,91.62Z"/>
        <path class="st2" d="M766.13,468.15c-28.93-71.31-59.88-142.18-90.53-202.56l-11.73,26.21c24.37,51.06,48.63,107.43,71.62,164.1,76.98,189.72-9.36,378.62-227.49,370.72-30.51-1.1-58.66-6.12-84.22-14.52,33.08,15.79,71.61,25.21,114.86,26.78,218.13,7.9,304.47-181,227.49-370.72Z"/>
      </g>
      <path class="st2" d="M877.9,872.67c22.76,14.92,37.81,40.65,37.81,69.9v13.2c0,13.19-10.7,23.89-23.89,23.89H136.68c4.09,7.31,11.9,12.26,20.86,12.26h764.92c13.19,0,23.89-10.7,23.89-23.89v-13.2c0-40.98-29.52-75.05-68.45-82.16Z"/>
    </g>
    <g id="Ebene_5">
      <path class="st4" d="M176.37,987.95v-13.2c0-46.14,37.4-83.54,83.54-83.54h645.61c4.24,0,8.4.32,12.46.93-14.72-12.96-34.02-20.84-55.18-20.84H217.19c-46.14,0-83.54,37.4-83.54,83.54v13.2c0,13.19,10.7,23.89,23.89,23.89h19.16c-.22-1.29-.34-2.62-.34-3.98Z"/>
      <g>
        <path class="st4" d="M636.19,469.03l66.28-148.11c-8.94-19.17-17.92-37.7-26.87-55.33l-82.13,183.52-10.12-4.53-.3.66,53.13,23.78Z"/>
        <path class="st4" d="M353.87,488.06c68.43-190.99,168.59-364.26,224.41-370.54-14.08-12.93-27.39-20.1-39.64-20.1-55.15,0-157.79,176.17-227.49,370.72-57.46,160.38,1.55,305.58,136.69,353.94-104.24-61.36-144.96-191.71-93.98-334.02Z"/>
      </g>
    </g>
    <g id="Ebene_2">
      <g>
        <path class="st3" d="M157.54,985.92c-9.86,0-17.89-8.03-17.89-17.89v-13.2c0-42.76,34.79-77.54,77.54-77.54h645.61c42.76,0,77.54,34.79,77.54,77.54v13.2c0,9.87-8.03,17.89-17.89,17.89H157.54Z"/>
        <path d="M862.81,883.29c39.45,0,71.54,32.09,71.54,71.54v13.2c0,6.56-5.33,11.89-11.89,11.89H157.54c-6.56,0-11.89-5.33-11.89-11.89v-13.2c0-39.45,32.09-71.54,71.54-71.54h645.61M862.81,871.29H217.19c-46.14,0-83.54,37.4-83.54,83.54v13.2c0,13.19,10.7,23.89,23.89,23.89h764.92c13.19,0,23.89-10.7,23.89-23.89v-13.2c0-46.14-37.4-83.54-83.54-83.54h0Z"/>
      </g>
      <path class="st1" d="M766.13,468.15c-28.93-71.31-59.88-142.18-90.53-202.56l-82.13,183.52-53.13-23.78,100.25-224.02c-37.23-62.92-72.66-103.89-101.95-103.89-55.15,0-157.79,176.17-227.49,370.72-69.06,192.75,30.1,363.57,227.49,370.72,218.13,7.9,304.47-181,227.49-370.72Z"/>
    </g>
  </g>
  <g id="Untere_Platte">
    <g>
      <path class="st3" d="M157.54,985.92c-9.86,0-17.89-8.03-17.89-17.89v-13.2c0-42.76,34.79-77.54,77.54-77.54h645.61c42.76,0,77.54,34.79,77.54,77.54v13.2c0,9.87-8.03,17.89-17.89,17.89H157.54Z"/>
      <path d="M862.81,883.29c39.45,0,71.54,32.09,71.54,71.54v13.2c0,6.56-5.33,11.89-11.89,11.89H157.54c-6.56,0-11.89-5.33-11.89-11.89v-13.2c0-39.45,32.09-71.54,71.54-71.54h645.61M862.81,871.29H217.19c-46.14,0-83.54,37.4-83.54,83.54v13.2c0,13.19,10.7,23.89,23.89,23.89h764.92c13.19,0,23.89-10.7,23.89-23.89v-13.2c0-46.14-37.4-83.54-83.54-83.54h0Z"/>
    </g>
    <path class="st4" d="M176.37,987.95v-13.2c0-46.14,37.4-83.54,83.54-83.54h645.61c4.24,0,8.4.32,12.46.93-14.72-12.96-34.02-20.84-55.18-20.84H217.19c-46.14,0-83.54,37.4-83.54,83.54v13.2c0,13.19,10.7,23.89,23.89,23.89h19.16c-.22-1.29-.34-2.62-.34-3.98Z"/>
    <path class="st2" d="M877.9,872.67c22.76,14.92,37.81,40.65,37.81,69.9v13.2c0,13.19-10.7,23.89-23.89,23.89H136.68c4.09,7.31,11.9,12.26,20.86,12.26h764.92c13.19,0,23.89-10.7,23.89-23.89v-13.2c0-40.98-29.52-75.05-68.45-82.16Z"/>
    <path d="M862.81,883.29c39.45,0,71.54,32.09,71.54,71.54v13.2c0,6.56-5.33,11.89-11.89,11.89H157.54c-6.56,0-11.89-5.33-11.89-11.89v-13.2c0-39.45,32.09-71.54,71.54-71.54h645.61M862.81,871.29H217.19c-46.14,0-83.54,37.4-83.54,83.54v13.2c0,13.19,10.7,23.89,23.89,23.89h764.92c13.19,0,23.89-10.7,23.89-23.89v-13.2c0-46.14-37.4-83.54-83.54-83.54h0Z"/>
  </g>
  <g id="Ebene_7">
    <g>
      <path class="st3" d="M272.89,826.64c-9.17,0-17.83-4.02-23.76-11.02-5.93-7-8.46-16.21-6.94-25.25l80.67-481.82c2.52-15.06,15.43-25.99,30.7-25.99h372.88c15.27,0,28.18,10.93,30.7,25.99l80.67,481.82c1.52,9.05-1.02,18.25-6.94,25.25s-14.59,11.02-23.76,11.02H272.89Z"/>
      <path d="M726.44,288.55c12.33,0,22.75,8.82,24.79,20.98l80.67,481.82c1.22,7.3-.82,14.73-5.6,20.39-4.78,5.65-11.78,8.89-19.18,8.89H272.89c-7.41,0-14.4-3.24-19.18-8.89-4.78-5.65-6.83-13.08-5.6-20.39l80.67-481.82c2.04-12.16,12.46-20.98,24.79-20.98h372.88M726.44,276.55h-372.88c-18.14,0-33.63,13.11-36.62,31l-80.67,481.82c-3.79,22.64,13.67,43.26,36.62,43.26h534.23c22.96,0,40.41-20.62,36.62-43.26l-80.67-481.82c-3-17.89-18.48-31-36.62-31h0Z"/>
    </g>
    <g>
      <path class="st3" d="M162.01,231.91c-16.77,0-30.41-13.64-30.41-30.41v-100.28c0-16.77,13.64-30.41,30.41-30.41h126.32c16.77,0,30.41,13.64,30.41,30.41,0,23.08,18.77,42.1,41.85,42.41l42.86.57h.57c23.38,0,42.4-19.02,42.4-42.41v-.57c0-16.77,13.64-30.41,30.41-30.41h126.32c16.77,0,30.41,13.64,30.41,30.41v3.63c0,23.39,19.02,42.41,42.4,42.41h.57s42.86-.57,42.86-.57c23.08-.31,41.85-19.33,41.85-42.41v-3.06c0-16.77,13.64-30.41,30.41-30.41h126.32c16.77,0,30.41,13.64,30.41,30.41v100.28c0,16.77-13.64,30.41-30.41,30.41H162.01Z"/>
      <path d="M917.99,76.8c13.46,0,24.41,10.95,24.41,24.41v100.28c0,13.46-10.95,24.41-24.41,24.41H162.01c-13.46,0-24.41-10.95-24.41-24.41v-100.28c0-13.46,10.95-24.41,24.41-24.41h126.32c13.46,0,24.41,10.95,24.41,24.41,0,26.34,21.43,48.06,47.77,48.41l42.86.57c.22,0,.43,0,.65,0,26.69,0,48.4-21.72,48.4-48.41v-.57c0-13.46,10.95-24.41,24.41-24.41h126.32c13.46,0,24.41,10.95,24.41,24.41v3.63c0,26.7,21.71,48.41,48.4,48.41.22,0,.43,0,.65,0l42.86-.57c26.34-.35,47.77-22.07,47.77-48.41v-3.06c0-13.46,10.95-24.41,24.41-24.41h126.32M917.99,64.8h-126.32c-20.11,0-36.41,16.3-36.41,36.41v3.06c0,19.92-16.01,36.15-35.93,36.41l-42.86.57c-.16,0-.33,0-.49,0-20.07,0-36.4-16.28-36.4-36.41v-3.63c0-20.11-16.3-36.41-36.41-36.41h-126.32c-20.11,0-36.41,16.3-36.41,36.41v.57c0,20.14-16.33,36.41-36.4,36.41-.16,0-.33,0-.49,0l-42.86-.57c-19.92-.26-35.93-16.49-35.93-36.41s-16.3-36.41-36.41-36.41h-126.32c-20.11,0-36.41,16.3-36.41,36.41v100.28c0,20.11,16.3,36.41,36.41,36.41h755.99c20.11,0,36.41-16.3,36.41-36.41v-100.28c0-20.11-16.3-36.41-36.41-36.41h0Z"/>
    </g>
  </g>
  <g id="Ebene_9">
    <path class="st4" d="M274.56,812.7l80.67-481.82c3-17.89,18.48-31,36.62-31h369.05c-5.54-13.84-19.04-23.33-34.47-23.33h-372.88c-18.14,0-33.63,13.11-36.62,31l-80.67,481.82c-3.79,22.64,13.67,43.26,36.62,43.26h3.82c-2.44-6.08-3.32-12.91-2.14-19.93Z"/>
    <g>
      <path class="st4" d="M711.7,165.77l42.86-.57c19.92-.26,35.93-16.49,35.93-36.41v-3.06c0-20.11,16.3-36.41,36.41-36.41h125.5c-4.93-14.26-18.47-24.51-34.41-24.51h-126.32c-20.11,0-36.41,16.3-36.41,36.41v3.06c0,19.92-16.01,36.15-35.93,36.41l-42.52.56c4.99,14.42,18.77,24.73,34.9,24.52Z"/>
      <path class="st4" d="M160.83,226v-100.28c0-20.11,16.3-36.41,36.41-36.41h125.5c-4.93-14.26-18.47-24.51-34.41-24.51h-126.32c-20.11,0-36.41,16.3-36.41,36.41v100.28c0,20.11,16.3,36.41,36.41,36.41h.82c-1.29-3.73-2-7.73-2-11.9Z"/>
      <path class="st4" d="M395.91,162.14l42.86.57c20.3.27,36.9-16.11,36.9-36.41v-.57c0-20.11,16.3-36.41,36.41-36.41h125.5c-4.93-14.26-18.47-24.51-34.41-24.51h-126.32c-20.11,0-36.41,16.3-36.41,36.41v.57c0,20.3-16.6,36.68-36.9,36.41l-41.55-.55c4.88,14.1,18.18,24.28,33.93,24.49Z"/>
    </g>
    <g>
      <path class="st2" d="M615.06,81.3v3.63c0,17.23,11.96,31.62,27.98,35.43-2.22-4.71-3.47-9.96-3.47-15.51v-3.63c0-17.2-11.93-31.61-27.97-35.42,2.22,4.71,3.46,9.96,3.46,15.51Z"/>
      <path class="st2" d="M926.43,65.79c2.22,4.71,3.46,9.96,3.46,15.51v100.28c0,20.11-16.3,36.41-36.41,36.41H137.49c-2.91,0-5.73-.35-8.44-.99,5.82,12.36,18.39,20.91,32.95,20.91h755.99c20.11,0,36.41-16.3,36.41-36.41v-100.28c0-17.2-11.93-31.61-27.97-35.42Z"/>
      <path class="st2" d="M300.23,81.3h0c0,17.18,11.91,31.61,27.97,35.42-2.22-4.71-3.46-9.96-3.46-15.5h0c0-17.2-11.93-31.61-27.97-35.42,2.22,4.71,3.46,9.96,3.46,15.51Z"/>
    </g>
    <path class="st2" d="M843.74,789.38l-80.67-481.82c-3-17.89-18.48-31-36.62-31h-4.19c3.58,4.68,6.08,10.26,7.11,16.4l80.67,481.82c3.79,22.64-13.67,43.26-36.62,43.26H243.38c6.73,8.81,17.35,14.6,29.51,14.6h534.23c22.96,0,40.41-20.62,36.62-43.26Z"/>
  </g>
  <g id="Ebene_8">
    <path d="M726.44,288.55c12.33,0,22.75,8.82,24.79,20.98l80.67,481.82c1.22,7.3-.82,14.73-5.6,20.39-4.78,5.65-11.78,8.89-19.18,8.89H272.89c-7.41,0-14.4-3.24-19.18-8.89-4.78-5.65-6.83-13.08-5.6-20.39l80.67-481.82c2.04-12.16,12.46-20.98,24.79-20.98h372.88M726.44,276.55h-372.88c-18.14,0-33.63,13.11-36.62,31l-80.67,481.82c-3.79,22.64,13.67,43.26,36.62,43.26h534.23c22.96,0,40.41-20.62,36.62-43.26l-80.67-481.82c-3-17.89-18.48-31-36.62-31h0Z"/>
    <path d="M917.99,76.8c13.46,0,24.41,10.95,24.41,24.41v100.28c0,13.46-10.95,24.41-24.41,24.41H162.01c-13.46,0-24.41-10.95-24.41-24.41v-100.28c0-13.46,10.95-24.41,24.41-24.41h126.32c13.46,0,24.41,10.95,24.41,24.41,0,26.34,21.43,48.06,47.77,48.41l42.86.57c.22,0,.43,0,.65,0,26.69,0,48.4-21.72,48.4-48.41v-.57c0-13.46,10.95-24.41,24.41-24.41h126.32c13.46,0,24.41,10.95,24.41,24.41v3.63c0,26.7,21.71,48.41,48.4,48.41.22,0,.43,0,.65,0l42.86-.57c26.34-.35,47.77-22.07,47.77-48.41v-3.06c0-13.46,10.95-24.41,24.41-24.41h126.32M917.99,64.8h-126.32c-20.11,0-36.41,16.3-36.41,36.41v3.06c0,19.92-16.01,36.15-35.93,36.41l-42.86.57c-.16,0-.33,0-.49,0-20.07,0-36.4-16.28-36.4-36.41v-3.63c0-20.11-16.3-36.41-36.41-36.41h-126.32c-20.11,0-36.41,16.3-36.41,36.41v.57c0,20.14-16.33,36.41-36.4,36.41-.16,0-.33,0-.49,0l-42.86-.57c-19.92-.26-35.93-16.49-35.93-36.41s-16.3-36.41-36.41-36.41h-126.32c-20.11,0-36.41,16.3-36.41,36.41v100.28c0,20.11,16.3,36.41,36.41,36.41h755.99c20.11,0,36.41-16.3,36.41-36.41v-100.28c0-20.11-16.3-36.41-36.41-36.41h0Z"/>
  </g>
</svg>