<?xml version="1.0" encoding="UTF-8"?>
<svg xmlns="http://www.w3.org/2000/svg" version="1.1" xmlns:xlink="http://www.w3.org/1999/xlink" viewBox="0 0 1080 1080">
  <!-- Generator: Adobe Illustrator 29.1.0, SVG Export Plug-In . SVG Version: 2.1.0 Build 142)  -->
  <defs>
    <style>
      .st0 {
        fill: none;
      }

      .st0, .st1, .st2, .st3 {
        stroke-miterlimit: 10;
      }

      .st0, .st2, .st3 {
        stroke: #000;
        stroke-width: 12px;
      }

      .st1 {
        fill: red;
        stroke: red;
      }

      .st2 {
        fill: url(#Unbenannter_Verlauf_41);
      }

      .st4 {
        fill: #666;
      }

      .st5, .st3 {
        fill: #333;
      }

      .st6 {
        fill: #1a1a1a;
      }

      .st7 {
        display: none;
      }

      .st8 {
        fill: url(#Unbenannter_Verlauf_4);
      }
    </style>
    <linearGradient id="Unbenannter_Verlauf_4" data-name="Unbenannter Verlauf 4" x1="139.65" y1="931.6" x2="940.35" y2="931.6" gradientUnits="userSpaceOnUse">
      <stop offset="0" stop-color="#4d4d4d"/>
      <stop offset="1" stop-color="#1a1a1a"/>
    </linearGradient>
    <linearGradient id="Unbenannter_Verlauf_41" data-name="Unbenannter Verlauf 4" x1="289.24" y1="468.27" x2="793.77" y2="468.27" xlink:href="#Unbenannter_Verlauf_4"/>
  </defs>
  <g id="Ebene_2">
    <g>
      <path class="st5" d="M157.54,985.92c-9.86,0-17.89-8.03-17.89-17.89v-13.2c0-42.76,34.79-77.54,77.54-77.54h645.61c42.76,0,77.54,34.79,77.54,77.54v13.2c0,9.87-8.03,17.89-17.89,17.89H157.54Z"/>
      <path d="M862.81,883.29c39.45,0,71.54,32.09,71.54,71.54v13.2c0,6.56-5.33,11.89-11.89,11.89H157.54c-6.56,0-11.89-5.33-11.89-11.89v-13.2c0-39.45,32.09-71.54,71.54-71.54h645.61M862.81,871.29H217.19c-46.14,0-83.54,37.4-83.54,83.54v13.2c0,13.19,10.7,23.89,23.89,23.89h764.92c13.19,0,23.89-10.7,23.89-23.89v-13.2c0-46.14-37.4-83.54-83.54-83.54h0Z"/>
    </g>
    <path class="st3" d="M766.13,468.15c-28.93-71.31-59.88-142.18-90.53-202.56l-82.13,183.52-53.13-23.78,100.25-224.02c-37.23-62.92-72.66-103.89-101.95-103.89-55.15,0-157.79,176.17-227.49,370.72-69.06,192.75,30.1,363.57,227.49,370.72,218.13,7.9,304.47-181,227.49-370.72Z"/>
  </g>
  <g id="Ebene_5">
    <path class="st6" d="M176.37,987.95v-13.2c0-46.14,37.4-83.54,83.54-83.54h645.61c4.24,0,8.4.32,12.46.93-14.72-12.96-34.02-20.84-55.18-20.84H217.19c-46.14,0-83.54,37.4-83.54,83.54v13.2c0,13.19,10.7,23.89,23.89,23.89h19.16c-.22-1.29-.34-2.62-.34-3.98Z"/>
    <g>
      <path class="st6" d="M636.19,469.03l66.28-148.11c-8.94-19.17-17.92-37.7-26.87-55.33l-82.13,183.52-10.12-4.53-.3.66,53.13,23.78Z"/>
      <path class="st6" d="M353.87,488.06c68.43-190.99,168.59-364.26,224.41-370.54-14.08-12.93-27.39-20.1-39.64-20.1-55.15,0-157.79,176.17-227.49,370.72-57.46,160.38,1.55,305.58,136.69,353.94-104.24-61.36-144.96-191.71-93.98-334.02Z"/>
    </g>
  </g>
  <g id="Ebene_4">
    <path class="st4" d="M877.9,872.67c22.76,14.92,37.81,40.65,37.81,69.9v13.2c0,13.19-10.7,23.89-23.89,23.89H136.68c4.09,7.31,11.9,12.26,20.86,12.26h764.92c13.19,0,23.89-10.7,23.89-23.89v-13.2c0-40.98-29.52-75.05-68.45-82.16Z"/>
    <g>
      <path class="st4" d="M609.95,189.06l-100.25,224.02,53.13,23.78.54-1.21-23.04-10.31,100.25-224.02c-37.23-62.92-72.66-103.89-101.95-103.89-.12,0-.25,0-.38,0,22.18,16.6,46.52,49.09,71.69,91.62Z"/>
      <path class="st4" d="M766.13,468.15c-28.93-71.31-59.88-142.18-90.53-202.56l-11.73,26.21c24.37,51.06,48.63,107.43,71.62,164.1,76.98,189.72-9.36,378.62-227.49,370.72-30.51-1.1-58.66-6.12-84.22-14.52,33.08,15.79,71.61,25.21,114.86,26.78,218.13,7.9,304.47-181,227.49-370.72Z"/>
    </g>
  </g>
  <g id="Ebene_3">
    <path d="M862.81,883.29c39.45,0,71.54,32.09,71.54,71.54v13.2c0,6.56-5.33,11.89-11.89,11.89H157.54c-6.56,0-11.89-5.33-11.89-11.89v-13.2c0-39.45,32.09-71.54,71.54-71.54h645.61M862.81,871.29H217.19c-46.14,0-83.54,37.4-83.54,83.54v13.2c0,13.19,10.7,23.89,23.89,23.89h764.92c13.19,0,23.89-10.7,23.89-23.89v-13.2c0-46.14-37.4-83.54-83.54-83.54h0Z"/>
    <path class="st0" d="M766.13,468.15c-28.93-71.31-59.88-142.18-90.53-202.56l-82.13,183.52-53.13-23.78,100.25-224.02c-37.23-62.92-72.66-103.89-101.95-103.89-55.15,0-157.79,176.17-227.49,370.72-69.06,192.75,30.1,363.57,227.49,370.72,218.13,7.9,304.47-181,227.49-370.72Z"/>
  </g>
  <g id="Ebene_1" class="st7">
    <g>
      <path class="st8" d="M157.54,985.92c-9.86,0-17.89-8.03-17.89-17.89v-13.2c0-42.76,34.79-77.54,77.54-77.54h645.61c42.76,0,77.54,34.79,77.54,77.54v13.2c0,9.87-8.03,17.89-17.89,17.89H157.54Z"/>
      <path d="M862.81,883.29c39.45,0,71.54,32.09,71.54,71.54v13.2c0,6.56-5.33,11.89-11.89,11.89H157.54c-6.56,0-11.89-5.33-11.89-11.89v-13.2c0-39.45,32.09-71.54,71.54-71.54h645.61M862.81,871.29H217.19c-46.14,0-83.54,37.4-83.54,83.54v13.2c0,13.19,10.7,23.89,23.89,23.89h764.92c13.19,0,23.89-10.7,23.89-23.89v-13.2c0-46.14-37.4-83.54-83.54-83.54h0Z"/>
    </g>
    <path class="st2" d="M766.13,468.15c-28.93-71.31-59.88-142.18-90.53-202.56l-82.13,183.52-53.13-23.78,100.25-224.02c-37.23-62.92-72.66-103.89-101.95-103.89-55.15,0-157.79,176.17-227.49,370.72-69.06,192.75,30.1,363.57,227.49,370.72,218.13,7.9,304.47-181,227.49-370.72Z"/>
  </g>
  <g id="Ebene_6" class="st7">
    <line class="st1" x1="-33.54" y1="164.83" x2="1216.77" y2="709.95"/>
  </g>
</svg>